<?xml version="1.0" standalone="no"?>
<!DOCTYPE svg PUBLIC "-//W3C//DTD SVG 20010904//EN"
 "http://www.w3.org/TR/2001/REC-SVG-20010904/DTD/svg10.dtd">
<svg version="1.0" xmlns="http://www.w3.org/2000/svg"
 width="501.000000pt" height="501.000000pt" viewBox="0 0 501.000000 501.000000"
 preserveAspectRatio="xMidYMid meet">

<g transform="translate(0.000000,501.000000) scale(0.100000,-0.100000)"
fill="#000000" stroke="none">
<path d="M2273 4490 c-590 -74 -1106 -393 -1436 -887 -54 -82 -137 -233 -137
-250 0 -6 49 -33 110 -61 l109 -50 40 74 c150 278 368 512 628 673 435 270
972 334 1463 175 130 -41 339 -144 443 -217 234 -164 415 -365 552 -614 l51
-91 105 49 c57 27 108 50 113 52 12 4 -79 175 -144 271 -310 461 -774 761
-1330 861 -110 20 -454 29 -567 15z"/>
<path d="M1930 3294 c-8 -1 -41 -6 -72 -9 l-58 -6 0 -564 0 -563 88 -21 c231
-54 431 -30 524 63 74 74 110 232 90 396 -18 149 -67 231 -169 281 -44 22 -61
24 -185 24 l-138 0 0 202 0 203 -32 -1 c-18 -1 -40 -3 -48 -5z m287 -594 c49
-29 66 -72 71 -175 9 -192 -49 -258 -212 -240 l-66 7 0 208 c0 239 -10 217
105 219 53 1 78 -4 102 -19z"/>
<path d="M4280 3149 c-58 -22 -110 -41 -117 -43 -8 -3 -4 -28 14 -83 65 -205
92 -446 74 -654 -11 -133 -47 -314 -81 -413 l-18 -54 113 -41 c61 -23 115 -41
118 -41 11 0 65 184 86 293 60 311 49 620 -34 922 -19 70 -38 132 -42 139 -6
10 -32 4 -113 -25z"/>
<path d="M596 3093 c-36 -120 -62 -248 -77 -373 -16 -143 -6 -443 20 -578 23
-122 80 -322 92 -322 11 0 219 77 226 84 3 2 -4 33 -16 68 -105 319 -108 716
-6 1043 13 44 21 83 17 87 -9 9 -201 78 -217 78 -6 0 -24 -39 -39 -87z"/>
<path d="M1151 2885 c-35 -8 -65 -16 -67 -18 -2 -1 -6 -40 -10 -86 l-7 -83 59
9 c32 4 109 8 171 8 129 0 141 -6 150 -74 l6 -41 -54 0 c-192 -1 -318 -38
-360 -107 -27 -44 -37 -165 -20 -231 17 -62 76 -117 148 -139 81 -24 270 -24
378 1 129 30 117 -5 113 319 -3 266 -4 284 -25 322 -28 53 -57 79 -118 106
-42 19 -71 23 -175 26 -82 2 -147 -2 -189 -12z m299 -514 c0 -92 1 -91 -96
-91 -97 0 -134 24 -134 89 0 59 40 79 158 80 l72 1 0 -79z"/>
<path d="M2813 2890 c-55 -12 -112 -42 -145 -77 -74 -78 -78 -253 -8 -320 44
-41 91 -54 228 -62 135 -9 162 -21 162 -73 0 -63 -67 -86 -219 -74 -47 3 -112
12 -145 20 l-58 14 7 -82 c3 -44 10 -85 14 -89 22 -22 133 -40 251 -41 141 -1
207 12 273 54 64 41 82 84 82 201 0 88 -2 99 -28 138 -41 62 -92 81 -246 93
-131 10 -161 21 -161 60 0 10 11 30 25 43 22 23 31 25 121 25 54 0 126 -5 161
-11 35 -6 67 -9 70 -6 3 3 2 42 -2 85 l-7 80 -41 12 c-54 15 -279 22 -334 10z"/>
<path d="M3501 2885 c-35 -8 -65 -16 -67 -18 -2 -1 -6 -40 -10 -86 l-7 -83 59
9 c32 4 109 8 171 8 129 0 141 -6 150 -74 l6 -41 -54 0 c-30 0 -97 -5 -149
-10 -172 -18 -230 -69 -238 -208 -2 -42 1 -96 7 -120 17 -62 76 -117 148 -139
81 -24 270 -24 378 1 129 30 117 -5 113 319 -3 266 -4 284 -25 322 -28 53 -57
79 -118 106 -42 19 -71 23 -175 26 -82 2 -147 -2 -189 -12z m299 -514 c0 -92
1 -91 -96 -91 -97 0 -134 24 -134 89 0 59 40 79 158 80 l72 1 0 -79z"/>
<path d="M801 1709 c-90 -43 -102 -52 -98 -70 3 -12 34 -70 68 -130 416 -726
1244 -1118 2068 -978 546 92 1021 398 1330 857 64 95 156 260 149 267 -6 6
-216 105 -222 105 -3 0 -22 -33 -42 -72 -110 -218 -323 -463 -538 -615 -98
-70 -303 -177 -414 -217 -200 -72 -375 -100 -602 -99 -273 1 -499 51 -735 162
-347 164 -649 454 -806 774 -18 37 -38 67 -44 66 -5 0 -57 -23 -114 -50z"/>
</g>
</svg>
